<svg width="232" height="216" viewBox="0 0 232 216" fill="none" xmlns="http://www.w3.org/2000/svg">
<path d="M135.564 51.1958H134.345V18.7683C134.345 16.3036 133.844 13.863 132.872 11.5859C131.9 9.30882 130.474 7.2398 128.678 5.49702C126.881 3.75423 124.748 2.3718 122.4 1.42868C120.053 0.485547 117.537 0.000185773 114.996 0.000305198H44.1706C41.6297 0.00026539 39.1137 0.485696 36.7662 1.42888C34.4188 2.37206 32.2858 3.75453 30.4891 5.49734C28.6925 7.24015 27.2673 9.30917 26.295 11.5863C25.3227 13.8634 24.8222 16.3039 24.8223 18.7687V196.668C24.8223 201.645 26.8607 206.419 30.4891 209.939C34.1176 213.459 39.0388 215.436 44.1702 215.436H114.996C120.127 215.436 125.049 213.459 128.677 209.939C132.306 206.419 134.344 201.645 134.344 196.668V74.2783H135.563L135.564 51.1958Z" fill="#3F3D56"/>
<path d="M130.399 17.511V197.924C130.398 201.698 128.853 205.317 126.102 207.986C123.351 210.655 119.621 212.155 115.73 212.156H43.4504C39.5584 212.157 35.8254 210.658 33.0727 207.989C30.32 205.32 28.7729 201.699 28.7717 197.924V17.511C28.7729 13.7357 30.3199 10.1155 33.0725 7.44649C35.8251 4.77753 39.5579 3.27843 43.4498 3.27892H52.2177C51.7872 4.3059 51.6233 5.41975 51.7405 6.52256C51.8577 7.62536 52.2524 8.68336 52.8898 9.60356C53.5273 10.5238 54.388 11.278 55.3963 11.7999C56.4046 12.3219 57.5297 12.5956 58.6726 12.597H99.8803C101.023 12.5956 102.148 12.3219 103.157 11.7999C104.165 11.278 105.026 10.5238 105.663 9.60356C106.3 8.68336 106.695 7.62536 106.812 6.52256C106.93 5.41975 106.766 4.3059 106.335 3.27892H115.727C119.618 3.27956 123.349 4.77884 126.1 7.44714C128.851 10.1154 130.398 13.7343 130.399 17.5083V17.511Z" fill="white"/>
<path d="M80.3604 89.6874C72.1311 89.6904 64.2376 86.5223 58.4162 80.8801C52.5947 75.2378 49.3222 67.5836 49.3184 59.6009V59.5742C49.3184 59.5112 49.3184 59.4448 49.3221 59.3818C49.4159 42.8917 63.3415 29.4632 80.3604 29.4632C84.4369 29.463 88.4735 30.2417 92.2398 31.7547C96.0061 33.2677 99.4283 35.4856 102.311 38.2815C105.194 41.0775 107.48 44.3969 109.041 48.0501C110.601 51.7033 111.404 55.6189 111.404 59.5732C111.404 63.5275 110.602 67.4431 109.042 71.0965C107.482 74.7499 105.196 78.0695 102.313 80.8658C99.431 83.6621 96.0091 85.8803 92.243 87.3937C88.4769 88.9072 84.4404 89.6863 80.3639 89.6865H80.3604V89.6874ZM80.3604 30.0968C72.3375 30.1142 64.6457 33.2019 58.9564 38.6892C53.267 44.1764 50.0398 51.6198 49.9758 59.4021C49.9724 59.4694 49.9724 59.5233 49.9724 59.5745C49.9717 65.4056 51.7535 71.1059 55.0926 75.9545C58.4317 80.8032 63.1781 84.5825 68.7315 86.8144C74.2849 89.0463 80.3959 89.6307 86.2916 88.4936C92.1874 87.3565 97.6032 84.549 101.854 80.4261C106.105 76.3032 109 71.0502 110.173 65.3312C111.346 59.6123 110.744 53.6844 108.444 48.2972C106.144 42.9099 102.249 38.3053 97.2505 35.0657C92.2525 31.826 86.3763 30.0968 80.3651 30.0968H80.3604Z" fill="#E6E6E6"/>
<path d="M66.7841 59.3184C70.4639 59.3184 73.447 56.4247 73.447 52.8552C73.447 49.2856 70.4639 46.3919 66.7841 46.3919C63.1042 46.3919 60.1211 49.2856 60.1211 52.8552C60.1211 56.4247 63.1042 59.3184 66.7841 59.3184Z" fill="#3F3D56"/>
<path d="M87.678 72.7714H54.9913C54.9504 72.7719 54.9095 72.7688 54.8691 72.762L70.3288 46.7884C70.4231 46.6266 70.56 46.492 70.7255 46.3983C70.891 46.3047 71.0792 46.2553 71.2708 46.2553C71.4624 46.2553 71.6506 46.3047 71.8161 46.3983C71.9816 46.492 72.1185 46.6266 72.2128 46.7884L82.5875 64.2181L83.0844 65.052L87.678 72.7714Z" fill="#27AAE1"/>
<path d="M105.876 72.7718H77.6057L83.0837 65.0529L83.4778 64.4967L90.6163 54.4378C90.7426 54.2839 90.9008 54.1575 91.0807 54.0668C91.2606 53.9761 91.4582 53.9232 91.6605 53.9115C91.8629 53.8997 92.0656 53.9295 92.2554 53.9987C92.4451 54.068 92.6177 54.1753 92.7619 54.3135C92.7989 54.3528 92.8332 54.3943 92.8647 54.4378L105.876 72.7718Z" fill="#27AAE1"/>
<path d="M112.46 121.346H48.2313C47.916 121.346 47.6137 121.225 47.3907 121.008C47.1677 120.792 47.0423 120.499 47.042 120.193V104.738C47.0424 104.432 47.1678 104.139 47.3908 103.923C47.6138 103.707 47.916 103.585 48.2313 103.585H112.46C112.775 103.585 113.078 103.707 113.301 103.923C113.524 104.139 113.649 104.432 113.649 104.738V120.193C113.649 120.499 113.524 120.792 113.301 121.008C113.078 121.225 112.775 121.346 112.46 121.347V121.346ZM48.2313 104.046C48.0421 104.046 47.8606 104.119 47.7268 104.249C47.593 104.379 47.5178 104.555 47.5176 104.738V120.193C47.5178 120.377 47.593 120.553 47.7268 120.682C47.8606 120.812 48.0421 120.885 48.2313 120.885H112.46C112.649 120.885 112.831 120.812 112.965 120.682C113.098 120.553 113.174 120.377 113.174 120.193V104.738C113.174 104.555 113.098 104.379 112.965 104.249C112.831 104.119 112.649 104.046 112.46 104.046H48.2313Z" fill="#E6E6E6"/>
<path d="M56.557 117.311C59.316 117.311 61.5525 115.142 61.5525 112.465C61.5525 109.789 59.316 107.62 56.557 107.62C53.7981 107.62 51.5615 109.789 51.5615 112.465C51.5615 115.142 53.7981 117.311 56.557 117.311Z" fill="#27AAE1"/>
<path d="M68.0946 109.235C67.8738 109.235 67.662 109.32 67.5058 109.471C67.3497 109.623 67.262 109.828 67.262 110.042C67.262 110.257 67.3497 110.462 67.5058 110.614C67.662 110.765 67.8738 110.85 68.0946 110.85H107.345C107.456 110.854 107.567 110.837 107.67 110.799C107.774 110.761 107.869 110.703 107.95 110.63C108.03 110.556 108.095 110.467 108.139 110.368C108.184 110.27 108.208 110.164 108.21 110.056C108.212 109.949 108.191 109.842 108.15 109.742C108.109 109.642 108.047 109.551 107.969 109.475C107.891 109.398 107.798 109.338 107.696 109.297C107.593 109.255 107.483 109.234 107.372 109.235H68.0946V109.235Z" fill="#E6E6E6"/>
<path d="M68.0946 114.081C67.8738 114.081 67.662 114.166 67.5058 114.317C67.3497 114.469 67.262 114.674 67.262 114.888C67.262 115.102 67.3497 115.308 67.5058 115.459C67.662 115.611 67.8738 115.696 68.0946 115.696H107.345C107.456 115.7 107.567 115.683 107.67 115.645C107.774 115.607 107.869 115.549 107.95 115.475C108.03 115.401 108.095 115.312 108.139 115.214C108.184 115.116 108.208 115.009 108.21 114.902C108.212 114.794 108.191 114.687 108.15 114.588C108.109 114.488 108.047 114.397 107.969 114.32C107.891 114.244 107.798 114.183 107.696 114.142C107.593 114.101 107.483 114.08 107.372 114.081H68.0946V114.081Z" fill="#E6E6E6"/>
<path d="M112.46 147.191H48.2313C47.916 147.191 47.6137 147.069 47.3907 146.853C47.1677 146.636 47.0423 146.343 47.042 146.037V130.583C47.0424 130.277 47.1678 129.984 47.3908 129.767C47.6138 129.551 47.916 129.429 48.2313 129.429H112.46C112.775 129.429 113.078 129.551 113.301 129.767C113.524 129.984 113.649 130.277 113.649 130.583V146.038C113.649 146.343 113.523 146.637 113.301 146.853C113.078 147.069 112.775 147.191 112.46 147.191ZM48.2313 129.89C48.0421 129.891 47.8606 129.964 47.7268 130.093C47.593 130.223 47.5178 130.399 47.5176 130.583V146.038C47.5178 146.221 47.593 146.397 47.7268 146.527C47.8606 146.657 48.0421 146.73 48.2313 146.73H112.46C112.649 146.73 112.831 146.657 112.965 146.527C113.098 146.397 113.174 146.221 113.174 146.038V130.583C113.174 130.399 113.098 130.223 112.965 130.093C112.831 129.964 112.649 129.891 112.46 129.89H48.2313Z" fill="#E6E6E6"/>
<path d="M56.557 143.155C59.316 143.155 61.5525 140.986 61.5525 138.31C61.5525 135.633 59.316 133.464 56.557 133.464C53.7981 133.464 51.5615 135.633 51.5615 138.31C51.5615 140.986 53.7981 143.155 56.557 143.155Z" fill="#27AAE1"/>
<path d="M68.0946 135.078C67.8738 135.078 67.662 135.163 67.5058 135.315C67.3497 135.466 67.262 135.672 67.262 135.886C67.262 136.1 67.3497 136.306 67.5058 136.457C67.662 136.609 67.8738 136.694 68.0946 136.694H107.345C107.563 136.693 107.771 136.609 107.926 136.46C108.081 136.312 108.17 136.11 108.173 135.899C108.177 135.688 108.095 135.484 107.945 135.331C107.796 135.177 107.59 135.087 107.372 135.079H68.0946V135.078Z" fill="#E6E6E6"/>
<path d="M68.0946 139.925C67.8738 139.925 67.662 140.01 67.5058 140.162C67.3497 140.313 67.262 140.519 67.262 140.733C67.262 140.947 67.3497 141.152 67.5058 141.304C67.662 141.455 67.8738 141.54 68.0946 141.54H107.345C107.563 141.539 107.771 141.455 107.926 141.307C108.081 141.158 108.17 140.957 108.173 140.746C108.177 140.535 108.095 140.331 107.945 140.177C107.796 140.024 107.59 139.933 107.372 139.925L68.0946 139.925Z" fill="#E6E6E6"/>
<path d="M112.46 173.035H48.2313C47.916 173.035 47.6137 172.913 47.3907 172.697C47.1677 172.481 47.0423 172.187 47.042 171.882V156.427C47.0424 156.121 47.1678 155.828 47.3908 155.612C47.6138 155.395 47.916 155.274 48.2313 155.273H112.46C112.775 155.274 113.078 155.395 113.301 155.612C113.524 155.828 113.649 156.121 113.649 156.427V171.882C113.649 172.188 113.524 172.481 113.301 172.697C113.078 172.913 112.775 173.035 112.46 173.036V173.035ZM48.2313 155.735C48.0421 155.735 47.8606 155.808 47.7268 155.938C47.593 156.067 47.5178 156.243 47.5176 156.427V171.882C47.5178 172.065 47.593 172.241 47.7268 172.371C47.8606 172.501 48.0421 172.574 48.2313 172.574H112.46C112.649 172.574 112.831 172.501 112.965 172.371C113.098 172.241 113.174 172.065 113.174 171.882V156.427C113.174 156.243 113.098 156.067 112.965 155.938C112.831 155.808 112.649 155.735 112.46 155.735H48.2313Z" fill="#E6E6E6"/>
<path d="M56.557 169C59.316 169 61.5525 166.83 61.5525 164.154C61.5525 161.478 59.316 159.308 56.557 159.308C53.7981 159.308 51.5615 161.478 51.5615 164.154C51.5615 166.83 53.7981 169 56.557 169Z" fill="#27AAE1"/>
<path d="M68.0946 160.924C67.8738 160.924 67.662 161.009 67.5058 161.16C67.3497 161.312 67.262 161.517 67.262 161.731C67.262 161.945 67.3497 162.151 67.5058 162.302C67.662 162.454 67.8738 162.539 68.0946 162.539H107.345C107.456 162.543 107.567 162.526 107.67 162.488C107.774 162.45 107.869 162.392 107.95 162.318C108.03 162.244 108.095 162.155 108.139 162.057C108.184 161.959 108.208 161.852 108.21 161.745C108.212 161.637 108.191 161.53 108.15 161.431C108.109 161.331 108.047 161.24 107.969 161.163C107.891 161.087 107.798 161.026 107.696 160.985C107.593 160.944 107.483 160.923 107.372 160.924H68.0946V160.924Z" fill="#E6E6E6"/>
<path d="M68.0946 165.769C67.8738 165.769 67.662 165.854 67.5058 166.006C67.3497 166.157 67.262 166.363 67.262 166.577C67.262 166.791 67.3497 166.997 67.5058 167.148C67.662 167.3 67.8738 167.385 68.0946 167.385H107.345C107.456 167.389 107.567 167.371 107.67 167.334C107.774 167.296 107.869 167.238 107.95 167.164C108.03 167.09 108.095 167.001 108.139 166.903C108.184 166.804 108.208 166.698 108.21 166.591C108.212 166.483 108.191 166.376 108.15 166.276C108.109 166.177 108.047 166.086 107.969 166.009C107.891 165.933 107.798 165.872 107.696 165.831C107.593 165.79 107.483 165.769 107.372 165.77H68.0946V165.769Z" fill="#E6E6E6"/>
<path d="M164.14 211.947H160.248L158.397 197.387H164.14L164.14 211.947Z" fill="#FEB8B8"/>
<path d="M165.132 215.606H152.584V215.452C152.585 214.196 153.099 212.991 154.015 212.102C154.931 211.214 156.173 210.715 157.468 210.714H165.133L165.132 215.606Z" fill="#2F2E41"/>
<path d="M212.483 209.475L208.694 210.34L203.451 196.578L209.041 195.301L212.483 209.475Z" fill="#FEB8B8"/>
<path d="M214.314 212.816L202.1 215.605L202.064 215.455C201.917 214.85 201.894 214.222 201.997 213.608C202.1 212.993 202.327 212.405 202.664 211.876C203.002 211.346 203.443 210.887 203.964 210.523C204.484 210.16 205.074 209.899 205.698 209.757L213.158 208.053L214.314 212.816Z" fill="#2F2E41"/>
<path d="M163.345 150.535C163.352 149.777 163.584 131.869 168.644 125.099L168.719 124.999L186.353 127.359L185.959 131.117C186.734 131.849 192.835 138.034 194.597 152.678L213.316 201.441L204.614 202.208L178.855 148.977L165.224 206.839H156.599L163.345 150.535Z" fill="#2F2E41"/>
<path d="M166.578 125.759L168.302 116.981C167.964 116.56 166.469 114.536 166.802 112.164C167.019 110.617 167.971 109.26 169.633 108.13L174.101 98.017L174.162 97.9827C174.463 97.8109 181.577 93.8205 185.455 97.5853C185.552 97.6581 195.101 105.012 191.267 114.93L186.534 128.707L166.578 125.759Z" fill="#CCCCCC"/>
<path d="M160.581 137.636C161.046 137.584 161.493 137.435 161.892 137.197C162.29 136.96 162.631 136.64 162.888 136.262C163.146 135.883 163.315 135.454 163.383 135.005C163.451 134.556 163.417 134.098 163.283 133.663L172.51 127.215L166.987 125.177L159.072 131.613C158.336 131.881 157.726 132.401 157.359 133.076C156.991 133.75 156.89 134.532 157.076 135.273C157.262 136.014 157.721 136.664 158.366 137.099C159.012 137.534 159.8 137.726 160.581 137.636V137.636Z" fill="#FEB8B8"/>
<path d="M162.277 127.204L176.363 116.438L172.176 102.559C171.978 101.902 171.923 101.212 172.012 100.533C172.101 99.8543 172.334 99.2004 172.695 98.6123C173.029 98.058 173.479 97.5776 174.016 97.2018C174.553 96.8259 175.165 96.563 175.813 96.4298C178.224 95.9348 180.413 97.2446 182.318 100.323L182.332 100.351C182.647 101.099 189.986 118.695 184.383 122.459C178.901 126.14 166.191 131.498 166.063 131.552L165.914 131.615L162.277 127.204Z" fill="#CCCCCC"/>
<path d="M180.998 93.9254C185.711 93.9254 189.532 90.2193 189.532 85.6476C189.532 81.076 185.711 77.3699 180.998 77.3699C176.285 77.3699 172.465 81.076 172.465 85.6476C172.465 90.2193 176.285 93.9254 180.998 93.9254Z" fill="#FEB8B8"/>
<path d="M194.377 82.6922C198.546 82.6922 201.926 79.4136 201.926 75.3692C201.926 71.3249 198.546 68.0463 194.377 68.0463C190.207 68.0463 186.827 71.3249 186.827 75.3692C186.827 79.4136 190.207 82.6922 194.377 82.6922Z" fill="#2F2E41"/>
<path d="M200.888 81.4333C199.911 82.1179 198.779 82.5656 197.587 82.739C196.395 82.9124 195.177 82.8064 194.036 82.43C192.895 82.0535 191.863 81.4176 191.028 80.5752C190.192 79.7328 189.576 78.7086 189.232 77.5881C189.362 78.5928 189.705 79.5604 190.24 80.4298C190.775 81.2993 191.49 82.0517 192.34 82.6395C193.19 83.2273 194.156 83.6378 195.178 83.845C196.2 84.0522 197.254 84.0516 198.276 83.8433C199.297 83.635 200.263 83.2235 201.113 82.6347C201.962 82.046 202.676 81.2928 203.21 80.4228C203.744 79.5528 204.086 78.5848 204.215 77.58C204.344 76.5752 204.256 75.5554 203.958 74.5851C204.127 75.8888 203.931 77.2126 203.391 78.4175C202.851 79.6225 201.986 80.6641 200.888 81.4333Z" fill="#2F2E41"/>
<path d="M171.095 81.4406C172.413 79.152 172.917 78.1971 174.617 76.8027C176.119 75.5717 177.968 75.2104 179.459 76.3765C181.272 75.6086 183.296 75.443 185.216 75.9055C187.136 76.368 188.845 77.4328 190.078 78.9343C191.31 80.4358 191.997 82.29 192.031 84.209C192.065 86.1279 191.445 88.0041 190.267 89.5461C189.089 91.0881 187.419 92.2095 185.516 92.7362C183.614 93.2629 181.585 93.1654 179.746 92.4587C177.906 91.7521 176.359 90.476 175.344 88.8286C174.329 87.1812 173.903 85.2547 174.133 83.3484C172.836 83.1729 172.391 81.6182 171.095 81.4406Z" fill="#2F2E41"/>
<path d="M231.394 216H0.605607C0.270927 216 0 215.858 0 215.683C0 215.508 0.27124 215.366 0.605607 215.366H231.394C231.728 215.366 232 215.508 232 215.683C232 215.858 231.729 216 231.394 216Z" fill="#E6E6E6"/>
</svg>
