<svg width="232" height="216" viewBox="0 0 232 216" fill="none" xmlns="http://www.w3.org/2000/svg">
<g clip-path="url(#clip0_1117_12042)">
<path d="M159.472 66.7658C159.464 71.6463 158.11 76.4146 155.58 80.4678C153.051 84.5209 149.46 87.6769 145.261 89.5365C141.063 91.3962 136.445 91.8761 131.993 90.9155C127.541 89.9548 123.454 87.5969 120.249 84.1398C117.043 80.6826 114.864 76.2816 113.986 71.4932C113.108 66.7049 113.571 61.7442 115.316 57.2386C117.061 52.7329 120.01 48.8847 123.791 46.1804C127.571 43.4762 132.012 42.0374 136.553 42.0461C139.571 42.0434 142.559 42.6816 145.346 43.924C148.133 45.1665 150.664 46.9886 152.794 49.2857C154.923 51.5828 156.61 54.3097 157.756 57.3095C158.902 60.3093 159.485 63.523 159.472 66.7658Z" fill="#F2F2F2"/>
<path d="M197.684 81.1501L200.913 74.5251C198.018 70.768 188.52 66.2112 188.52 66.2112L175.665 53.6359C175.528 53.0749 175.256 52.5625 174.876 52.1503C174.496 51.7382 174.022 51.4408 173.502 51.2881C172.981 51.1355 172.432 51.1329 171.91 51.2807C171.388 51.4285 170.912 51.7215 170.529 52.1301C170.146 52.5387 169.87 53.0485 169.728 53.6083C169.587 54.168 169.585 54.7579 169.723 55.3186C169.862 55.8793 170.135 56.391 170.515 56.8022C170.896 57.2134 171.371 57.5095 171.892 57.6608L185.779 75.5622L197.684 81.1501Z" fill="#9E616A"/>
<path d="M196.121 80.693L200.679 82.2528C203.994 83.3872 207.566 83.3017 210.83 82.01C211.818 81.6148 212.683 80.9307 213.328 80.0349C213.972 79.1391 214.371 78.0674 214.479 76.9408C214.615 75.4127 214.207 73.8858 213.336 72.6689C212.465 71.4521 211.197 70.6361 209.787 70.3859C205.512 69.6309 200.004 69.2585 198.039 71.7717L198.019 71.7972L196.121 80.693Z" fill="#3F3D56"/>
<path d="M163.333 100.975C176.013 100.975 186.293 89.9267 186.293 76.2984C186.293 62.6702 176.013 51.6224 163.333 51.6224C150.653 51.6224 140.373 62.6702 140.373 76.2984C140.373 89.9267 150.653 100.975 163.333 100.975Z" fill="white"/>
<path d="M153.963 66.6465C153.648 68.4661 153.131 70.2386 152.424 71.9262C148.374 81.1347 159.908 78.1332 164.029 78.1332C168.536 78.1332 172.848 80.6801 172.189 69.3631C171.908 64.529 168.536 60.5931 164.029 60.5931C160.18 60.5931 154.768 62.432 153.963 66.6465Z" fill="#2F2E41"/>
<path d="M163.354 78.131C167.016 78.131 169.985 74.9403 169.985 71.0044C169.985 67.0684 167.016 63.8777 163.354 63.8777C159.692 63.8777 156.723 67.0684 156.723 71.0044C156.723 74.9403 159.692 78.131 163.354 78.131Z" fill="#FFB6B6"/>
<path d="M158.851 63.7397C160.013 62.9784 161.344 62.5666 162.705 62.5473C164.065 62.528 165.406 62.902 166.586 63.6301C167.766 64.3583 168.743 65.4138 169.414 66.6864C170.084 67.959 170.425 69.4019 170.399 70.8642C167.02 71.7759 163.47 72.4736 159.867 71.0822L159.016 68.844L158.515 71.0839C157.417 71.5659 156.317 71.9738 155.217 71.0793C155.172 69.6211 155.484 68.1757 156.122 66.8878C156.759 65.5998 157.701 64.5143 158.851 63.7397Z" fill="#2F2E41"/>
<path d="M181.185 92.7065C177.207 97.5709 171.609 100.559 165.6 101.026C159.59 101.493 153.65 99.4006 149.063 95.2015L151.032 89.2957C151.477 88.2468 152.18 87.3478 153.064 86.6952C153.948 86.0426 154.981 85.661 156.052 85.5913L157.305 85.5086L160.292 82.7395C160.292 82.7395 168.341 82.4306 168.222 82.2827L173.097 85.4347L173.093 85.4129L175.01 85.5391C176.081 85.6085 177.114 85.99 177.998 86.6426C178.882 87.2952 179.585 88.1944 180.029 89.2435L181.185 92.7065Z" fill="#27AAE1"/>
<path d="M161.319 194.386L160.748 185.858C157.011 183.85 152.874 182.853 148.697 182.954C154.574 187.836 154.103 197.593 158.173 204.27C159.457 206.343 161.159 208.078 163.151 209.347C165.144 210.616 167.378 211.387 169.685 211.603L174.576 214.627C175.135 210.653 174.887 206.596 173.847 202.735C172.807 198.875 171 195.302 168.552 192.264C167.163 190.574 165.581 189.079 163.844 187.814C162.775 191.113 161.319 194.386 161.319 194.386Z" fill="#F2F2F2"/>
<path d="M12.6213 43.2284L12.0508 34.7003C8.31365 32.6925 4.177 31.6955 0 31.7959C5.87647 36.6778 5.40577 46.4349 9.47553 53.1125C10.7597 55.1847 12.4613 56.9197 14.4542 58.1891C16.4471 59.4584 18.6802 60.2295 20.9881 60.4452L25.8788 63.4692C26.4382 59.4951 26.1894 55.438 25.1494 51.5773C24.1095 47.7165 22.3032 44.144 19.8549 41.1058C18.4657 39.416 16.884 37.921 15.1472 36.656C14.0782 39.9546 12.6213 43.2284 12.6213 43.2284Z" fill="#F2F2F2"/>
<path d="M182.713 211.744L178.898 211.744L177.083 195.929H182.714L182.713 211.744Z" fill="#9E616A"/>
<path d="M183.686 215.718L171.385 215.718V215.55C171.385 214.186 171.89 212.877 172.788 211.912C173.686 210.947 174.903 210.405 176.173 210.405H176.173L178.42 208.573L182.612 210.405L183.686 210.405L183.686 215.718Z" fill="#2F2E41"/>
<path d="M216.335 211.744L212.52 211.744L210.705 195.929H216.335L216.335 211.744Z" fill="#9E616A"/>
<path d="M217.307 215.718L205.007 215.718V215.55C205.007 214.186 205.511 212.877 206.409 211.912C207.307 210.947 208.525 210.405 209.795 210.405H209.795L212.042 208.573L216.234 210.405L217.308 210.405L217.307 215.718Z" fill="#2F2E41"/>
<path d="M210.532 127.104L213.741 159.865C213.741 159.865 218.012 192.667 217.21 197.193C216.408 201.719 217.411 202.366 217.411 202.366L210.091 201.806C210.091 201.806 210.292 199.004 209.089 197.711C207.886 196.418 208.487 192.538 208.487 192.538L194.289 139.174L185.666 167.193C185.666 167.193 184.262 198.013 184.061 198.444C183.861 198.875 183.259 204.695 183.259 204.695H175.839C175.839 204.695 176.842 201.246 175.438 200.169C174.034 199.091 172.831 199.953 174.034 198.013C175.238 196.073 175.639 193.703 175.238 192.625C174.837 191.547 174.837 187.237 174.837 187.237C174.837 187.237 175.438 129.044 178.847 127.104C182.257 125.165 210.532 127.104 210.532 127.104Z" fill="#2F2E41"/>
<path d="M195.337 60.7729C199.696 60.7729 203.229 56.9755 203.229 52.2911C203.229 47.6068 199.696 43.8094 195.337 43.8094C190.979 43.8094 187.445 47.6068 187.445 52.2911C187.445 56.9755 190.979 60.7729 195.337 60.7729Z" fill="#9E616A"/>
<path d="M213.26 130.675C197.976 134.067 177.723 128.235 177.723 128.235L183.126 103.064L181.205 76.7217C180.97 73.5003 182.677 70.4807 185.333 69.4107L189 67.9345L192.031 63.2705L200.69 63.5758L204.151 68.4723L206.882 70.0297L212.804 73.4051L212.83 73.4191V73.4331L210.972 92.806L209.851 104.487C209.851 104.487 213.255 117.624 212.556 119.367C211.858 121.106 212.465 120.266 212.634 121.196C212.804 122.126 213.322 122.185 213.401 124.017C213.481 125.846 213.26 130.675 213.26 130.675Z" fill="#3F3D56"/>
<path d="M231.736 216H113.678C113.608 216 113.541 215.97 113.491 215.916C113.442 215.863 113.414 215.791 113.414 215.716C113.414 215.641 113.442 215.568 113.491 215.515C113.541 215.462 113.608 215.432 113.678 215.432H231.736C231.806 215.432 231.873 215.462 231.923 215.515C231.972 215.568 232 215.64 232 215.716C232 215.791 231.972 215.863 231.923 215.917C231.873 215.97 231.806 216 231.736 216Z" fill="#CCCCCC"/>
<path d="M194.953 60.3654C196.338 60.3502 197.718 60.2079 199.08 59.9402C200.428 59.6064 203.402 57.1347 204.212 55.6746C204.814 54.5897 205.176 52.9116 205.373 51.695C205.639 50.0849 205.588 48.4326 205.222 46.8451C204.857 45.2577 204.185 43.7705 203.251 42.4798C202.891 41.9391 202.401 41.513 201.834 41.2468C201.784 41.2273 201.732 41.2102 201.68 41.1958C200.858 40.9876 200.113 40.5202 199.54 39.8535C199.429 39.7185 199.309 39.5923 199.181 39.4759C198.538 38.9229 197.783 38.5412 196.977 38.362C195.674 38.0258 193.811 38.4471 191.439 39.6152C190.248 40.202 188.925 40.0383 187.906 39.8301C187.848 39.8199 187.79 39.8259 187.735 39.8476C187.681 39.8693 187.633 39.9059 187.596 39.9538C187.175 40.4009 186.612 40.6603 186.021 40.6798C185.659 40.7069 185.292 41.2567 184.849 41.9726C184.749 42.1351 184.631 42.3248 184.546 42.4405L184.529 42.2232L184.33 42.4717C184.017 42.8623 183.801 43.3317 183.703 43.8362C183.604 44.3406 183.625 44.8638 183.765 45.3568C183.905 45.8499 184.159 46.2969 184.503 46.6562C184.847 47.0154 185.27 47.2753 185.733 47.4116C186.1 47.5057 186.475 47.5593 186.852 47.5715C187.08 47.5873 187.317 47.6035 187.544 47.6394C188.274 47.779 188.957 48.1195 189.528 48.6277C190.098 49.1359 190.536 49.7944 190.799 50.539C190.861 50.711 190.96 50.8654 191.086 50.9903C191.212 51.1152 191.364 51.2071 191.529 51.2591C191.693 51.311 191.867 51.3216 192.036 51.29C192.205 51.2583 192.366 51.1854 192.504 51.0766C192.735 50.873 193.008 50.7323 193.301 50.6667C193.593 50.6011 193.896 50.6124 194.183 50.6997C194.433 50.8401 194.631 51.0686 194.742 51.3468C194.877 51.6565 195.095 51.9159 195.368 52.0919C196.299 52.5753 196.416 54.8277 196.132 56.716C195.857 58.5362 195.26 59.864 194.68 59.9449C194.233 60.0071 194.183 60.0428 194.152 60.1288L194.125 60.2058L194.177 60.2757C194.427 60.3652 194.692 60.3958 194.953 60.3654Z" fill="#2F2E41"/>
<path d="M163.333 101.284C158.735 101.284 154.24 99.8183 150.417 97.0729C146.594 94.3275 143.615 90.4253 141.855 85.8599C140.096 81.2945 139.635 76.2708 140.532 71.4241C141.429 66.5775 143.643 62.1256 146.895 58.6313C150.146 55.1371 154.288 52.7575 158.798 51.7934C163.307 50.8294 167.981 51.3241 172.229 53.2152C176.477 55.1063 180.108 58.3087 182.662 62.4175C185.217 66.5263 186.58 71.3569 186.58 76.2985C186.573 82.9227 184.122 89.2734 179.764 93.9574C175.405 98.6414 169.496 101.276 163.333 101.284ZM163.333 51.9316C158.849 51.9316 154.465 53.3607 150.737 56.0381C147.009 58.7156 144.103 62.5212 142.387 66.9737C140.671 71.4261 140.222 76.3255 141.097 81.0522C141.971 85.779 144.131 90.1207 147.301 93.5285C150.472 96.9363 154.512 99.257 158.91 100.197C163.308 101.137 167.866 100.655 172.009 98.8106C176.152 96.9663 179.693 93.8431 182.184 89.836C184.675 85.8289 186.005 81.1178 186.005 76.2985C185.998 69.8382 183.607 63.6447 179.357 59.0766C175.107 54.5085 169.344 51.9389 163.333 51.9316Z" fill="#3F3D56"/>
<path d="M83.0881 49.6612C95.7684 49.6612 106.048 38.6134 106.048 24.9852C106.048 11.3569 95.7684 0.309082 83.0881 0.309082C70.4078 0.309082 60.1284 11.3569 60.1284 24.9852C60.1284 38.6134 70.4078 49.6612 83.0881 49.6612Z" fill="white"/>
<path d="M84.1508 27.5022C88.2856 27.5022 91.6376 23.8997 91.6376 19.4558C91.6376 15.0119 88.2856 11.4094 84.1508 11.4094C80.016 11.4094 76.6641 15.0119 76.6641 19.4558C76.6641 23.8997 80.016 27.5022 84.1508 27.5022Z" fill="#FFB8B8"/>
<path d="M90.7426 14.1402C90.7426 14.1402 92.6919 10.1352 88.4034 9.77107C88.4034 9.77107 84.7474 6.20671 81.021 9.11946C81.021 9.11946 78.9883 9.11946 77.8768 11.5915C77.8768 11.5915 76.2782 10.9399 75.9269 12.6838C75.9269 12.6838 74.7571 16.3248 75.9269 19.6016C77.0967 22.8784 77.4852 23.2425 77.4852 23.2425C77.4852 23.2425 76.6645 19.1762 81.3432 18.8121C86.022 18.448 90.3143 15.2978 90.7042 19.3028C91.0941 23.3078 91.5228 21.4986 91.5228 21.4986C91.5228 21.4986 95.2262 15.7786 90.7426 14.1402Z" fill="#2F2E41"/>
<path d="M100.355 41.3932C96.3771 46.2575 90.7791 49.2457 84.7693 49.7125C78.7594 50.1793 72.8198 48.0873 68.2327 43.8882L70.202 37.9824C70.647 36.9334 71.3493 36.0345 72.2336 35.3819C73.1178 34.7293 74.1507 34.3476 75.2214 34.2779L76.4742 34.1953L79.4616 31.4262C79.4616 31.4262 87.5108 31.1173 87.3914 30.9694L92.2671 34.1213L92.2631 34.0996L94.1797 34.2257C95.2505 34.2951 96.2835 34.6766 97.1678 35.3293C98.0521 35.9819 98.7544 36.8811 99.1992 37.9302L100.355 41.3932Z" fill="#27AAE1"/>
<path d="M83.0881 49.9703C78.4903 49.9703 73.9956 48.5049 70.1726 45.7595C66.3496 43.0141 63.37 39.112 61.6104 34.5465C59.8509 29.9811 59.3905 24.9574 60.2875 20.1108C61.1845 15.2641 63.3986 10.8122 66.6498 7.31796C69.901 3.82373 74.0433 1.44412 78.5528 0.480064C83.0623 -0.483994 87.7366 0.0107935 91.9845 1.90186C96.2324 3.79293 99.8631 6.99534 102.418 11.1041C104.972 15.2129 106.335 20.0435 106.335 24.9851C106.328 31.6093 103.877 37.96 99.5187 42.644C95.1605 47.328 89.2516 49.9628 83.0881 49.9703ZM83.0881 0.618213C78.604 0.618212 74.2206 2.04731 70.4922 4.72478C66.7638 7.40225 63.8579 11.2078 62.1419 15.6603C60.4259 20.1128 59.9769 25.0122 60.8517 29.7389C61.7265 34.4656 63.8858 38.8074 67.0566 42.2152C70.2273 45.6229 74.2671 47.9437 78.665 48.8839C83.063 49.8241 87.6216 49.3415 91.7644 47.4972C95.9071 45.653 99.448 42.5298 101.939 38.5227C104.431 34.5156 105.76 29.8045 105.76 24.9851C105.753 18.5249 103.363 12.3313 99.1122 7.76321C94.8618 3.19512 89.099 0.625541 83.0881 0.618213Z" fill="#3F3D56"/>
<path d="M29.4988 88.6099C42.1791 88.6099 52.4585 77.562 52.4585 63.9338C52.4585 50.3056 42.1791 39.2577 29.4988 39.2577C16.8185 39.2577 6.53906 50.3056 6.53906 63.9338C6.53906 77.562 16.8185 88.6099 29.4988 88.6099Z" fill="white"/>
<path d="M18.857 55.9067C19.8064 52.6549 21.9653 49.6724 24.951 48.5732C27.9369 47.4739 32.309 49.1484 34.5538 51.5528C38.6598 55.9509 39.6618 71.0599 36.8408 75.8345C36.2797 75.8026 34.3435 75.7789 33.7756 75.7561L32.9722 72.8783V75.7277C32.0675 75.6977 31.1556 75.6769 30.2367 75.6655C27.1558 75.6244 24.2096 74.3011 22.0176 71.9739C19.8257 69.6466 18.5586 66.4966 18.4828 63.1861C18.4093 60.019 18.4829 57.1881 18.857 55.9067Z" fill="#2F2E41"/>
<path d="M29.1581 66.6839C32.7719 66.6839 35.7015 63.5354 35.7015 59.6514C35.7015 55.7675 32.7719 52.6189 29.1581 52.6189C25.5443 52.6189 22.6147 55.7675 22.6147 59.6514C22.6147 63.5354 25.5443 66.6839 29.1581 66.6839Z" fill="#9E616A"/>
<path d="M23.511 53.4752L31.045 49.4207C32.5853 50.1667 33.9119 51.3419 34.8871 52.8246C35.8624 54.3073 36.4508 56.0434 36.5913 57.8528L36.7791 60.2704L33.6242 59.4072L33.2786 56.316L32.7428 59.1661L31.2869 58.768L31.3007 53.9688L29.8439 58.7645L24.6438 57.4805L23.511 53.4752Z" fill="#2F2E41"/>
<path d="M46.5362 80.2634C42.5585 85.1278 36.9605 88.1159 30.9507 88.5827C24.9408 89.0495 19.0012 86.9575 14.4141 82.7584L16.3834 76.8526C16.8284 75.8037 17.5307 74.9047 18.415 74.2521C19.2992 73.5995 20.3321 73.2179 21.4028 73.1482L22.6556 73.0655L25.6429 70.2964C25.6429 70.2964 33.6922 69.9875 33.5728 69.8396L38.4485 72.9915L38.4445 72.9698L40.3611 73.096C41.4319 73.1654 42.4649 73.5469 43.3492 74.1995C44.2335 74.8521 44.9357 75.7513 45.3805 76.8004L46.5362 80.2634Z" fill="#27AAE1"/>
<path d="M29.4988 88.919C24.9009 88.919 20.4063 87.4536 16.5833 84.7082C12.7603 81.9628 9.7806 78.0607 8.02107 73.4952C6.26154 68.9298 5.80116 63.9061 6.69817 59.0595C7.59517 54.2128 9.80926 49.7609 13.0604 46.2666C16.3116 42.7724 20.4539 40.3928 24.9635 39.4287C29.473 38.4647 34.1472 38.9595 38.3951 40.8505C42.643 42.7416 46.2738 45.944 48.8282 50.0528C51.3826 54.1616 52.7461 58.9922 52.7461 63.9338C52.7391 70.558 50.2876 76.9087 45.9294 81.5927C41.5712 86.2767 35.6622 88.9114 29.4988 88.919ZM29.4988 39.5669C25.0147 39.5669 20.6313 40.996 16.9029 43.6734C13.1744 46.3509 10.2685 50.1565 8.55251 54.609C6.83652 59.0615 6.38754 63.9608 7.26234 68.6876C8.13715 73.4143 10.2965 77.7561 13.4672 81.1638C16.6379 84.5716 20.6777 86.8923 25.0757 87.8325C29.4736 88.7727 34.0322 88.2902 38.175 86.4459C42.3178 84.6016 45.8587 81.4785 48.3499 77.4713C50.8412 73.4642 52.1708 68.7531 52.1708 63.9338C52.164 57.4735 49.7732 51.28 45.5228 46.7119C41.2725 42.1438 35.5097 39.5742 29.4988 39.5669Z" fill="#3F3D56"/>
<path d="M184.538 89.1001L181.062 82.6215C176.559 83.2362 167.891 89.4152 167.891 89.4152L151.125 94.3457C150.611 94.1694 150.063 94.1417 149.535 94.2656C149.008 94.3894 148.52 94.6603 148.122 95.0511C147.723 95.4418 147.427 95.9386 147.263 96.4914C147.1 97.0442 147.075 97.6335 147.191 98.2C147.307 98.7665 147.559 99.2902 147.923 99.7184C148.287 100.147 148.75 100.464 149.264 100.639C149.779 100.814 150.327 100.84 150.854 100.715C151.381 100.59 151.868 100.318 152.266 99.9259L173.77 96.9113L184.538 89.1001Z" fill="#9E616A"/>
<path d="M183.341 90.2745L191.123 83.269L192.255 77.63C192.474 76.5222 192.4 75.3707 192.041 74.3057C191.683 73.2407 191.054 72.3047 190.227 71.6035C189.099 70.661 187.681 70.2139 186.258 70.3525C184.836 70.4911 183.515 71.2051 182.564 72.3501C179.681 75.8252 176.438 80.6247 177.36 83.7543L177.369 83.786L183.341 90.2745Z" fill="#3F3D56"/>
<path d="M64.0654 114.611H34.8249C34.0412 114.61 33.29 114.275 32.7358 113.68C32.1817 113.084 31.87 112.277 31.8691 111.434V92.0787C31.87 91.2364 32.1817 90.429 32.7358 89.8334C33.29 89.2379 34.0412 88.9029 34.8249 88.9019H64.0654C64.849 88.9029 65.6003 89.2379 66.1544 89.8334C66.7085 90.429 67.0202 91.2364 67.0211 92.0787V111.434C67.0202 112.277 66.7085 113.084 66.1544 113.68C65.6003 114.275 64.849 114.61 64.0654 114.611Z" fill="#E6E6E6"/>
<path d="M52.4477 112.118H36.8804C36.1464 112.117 35.4428 111.803 34.9238 111.246C34.4048 110.688 34.1129 109.932 34.1121 109.143V94.3702C34.1129 93.5814 34.4048 92.8251 34.9238 92.2674C35.4428 91.7096 36.1464 91.3959 36.8804 91.3951H62.0101C62.744 91.3959 63.4476 91.7097 63.9666 92.2674C64.4855 92.8252 64.7774 93.5814 64.7782 94.3702V98.8658C64.7745 102.379 63.4742 105.748 61.1626 108.232C58.851 110.717 55.7168 112.114 52.4477 112.118Z" fill="white"/>
<path d="M59.503 99.4842H39.387C39.213 99.4842 39.0461 99.4099 38.9231 99.2777C38.8001 99.1455 38.731 98.9661 38.731 98.7791C38.731 98.5921 38.8001 98.4128 38.9231 98.2806C39.0461 98.1483 39.213 98.074 39.387 98.074H59.503C59.677 98.074 59.8439 98.1483 59.9669 98.2806C60.0899 98.4128 60.1591 98.5921 60.1591 98.7791C60.1591 98.9661 60.0899 99.1455 59.9669 99.2777C59.8439 99.4099 59.677 99.4842 59.503 99.4842Z" fill="#27AAE1"/>
<path d="M42.5337 102.27H39.387C39.213 102.27 39.0462 102.196 38.9231 102.064C38.8001 101.932 38.731 101.752 38.731 101.565C38.731 101.378 38.8001 101.199 38.9231 101.067C39.0462 100.934 39.213 100.86 39.387 100.86H42.5337C42.7077 100.86 42.8746 100.934 42.9976 101.067C43.1207 101.199 43.1898 101.378 43.1898 101.565C43.1898 101.752 43.1207 101.932 42.9976 102.064C42.8746 102.196 42.7077 102.27 42.5337 102.27Z" fill="#27AAE1"/>
<path d="M48.1069 105.057H39.3871C39.2134 105.056 39.0468 104.982 38.9241 104.85C38.8014 104.717 38.7324 104.538 38.7324 104.351C38.7324 104.165 38.8014 103.986 38.9241 103.853C39.0468 103.721 39.2134 103.647 39.3871 103.646H48.1069C48.2807 103.647 48.4472 103.721 48.57 103.853C48.6927 103.986 48.7616 104.165 48.7616 104.351C48.7616 104.538 48.6927 104.717 48.57 104.85C48.4472 104.982 48.2807 105.056 48.1069 105.057Z" fill="#27AAE1"/>
<path d="M30.8486 95.1644C34.2648 95.1644 37.0341 92.188 37.0341 88.5164C37.0341 84.8449 34.2648 81.8685 30.8486 81.8685C27.4324 81.8685 24.6631 84.8449 24.6631 88.5164C24.6631 92.188 27.4324 95.1644 30.8486 95.1644Z" fill="#3F3D56"/>
<path d="M139.996 26.822H110.756C109.972 26.821 109.221 26.486 108.666 25.8905C108.112 25.295 107.801 24.4875 107.8 23.6453V4.28959C107.801 3.44737 108.112 2.63991 108.666 2.04437C109.221 1.44882 109.972 1.11382 110.756 1.11287H139.996C140.78 1.11382 141.531 1.44882 142.085 2.04436C142.639 2.63991 142.951 3.44736 142.952 4.28959V23.6453C142.951 24.4875 142.639 25.295 142.085 25.8905C141.531 26.4861 140.78 26.821 139.996 26.822Z" fill="#E6E6E6"/>
<path d="M128.378 24.3288H112.811C112.077 24.328 111.373 24.0142 110.854 23.4565C110.335 22.8988 110.043 22.1425 110.042 21.3537V6.58107C110.043 5.79228 110.335 5.03606 110.854 4.47831C111.373 3.92056 112.077 3.60684 112.811 3.60597H137.941C138.674 3.60685 139.378 3.92058 139.897 4.47832C140.416 5.03607 140.708 5.79229 140.709 6.58107V11.0767C140.705 14.5902 139.405 17.9586 137.093 20.443C134.781 22.9274 131.647 24.3249 128.378 24.3288Z" fill="white"/>
<path d="M135.434 11.6952H115.318C115.144 11.6952 114.977 11.6209 114.854 11.4886C114.731 11.3564 114.662 11.1771 114.662 10.9901C114.662 10.8031 114.731 10.6237 114.854 10.4915C114.977 10.3593 115.144 10.285 115.318 10.285H135.434C135.608 10.285 135.775 10.3593 135.898 10.4915C136.021 10.6237 136.09 10.8031 136.09 10.9901C136.09 11.1771 136.021 11.3564 135.898 11.4886C135.775 11.6209 135.608 11.6952 135.434 11.6952Z" fill="#27AAE1"/>
<path d="M118.464 14.4813H115.318C115.144 14.4813 114.977 14.407 114.854 14.2748C114.731 14.1426 114.662 13.9632 114.662 13.7762C114.662 13.5892 114.731 13.4098 114.854 13.2776C114.977 13.1454 115.144 13.0711 115.318 13.0711H118.464C118.638 13.0711 118.805 13.1454 118.928 13.2776C119.051 13.4098 119.12 13.5892 119.12 13.7762C119.12 13.9632 119.051 14.1426 118.928 14.2748C118.805 14.407 118.638 14.4813 118.464 14.4813Z" fill="#27AAE1"/>
<path d="M124.038 17.2675H115.318C115.144 17.2671 114.977 17.1926 114.855 17.0604C114.732 16.9282 114.663 16.7491 114.663 16.5624C114.663 16.3756 114.732 16.1965 114.855 16.0643C114.977 15.9321 115.144 15.8576 115.318 15.8572H124.038C124.212 15.8572 124.378 15.9315 124.502 16.0638C124.625 16.196 124.694 16.3754 124.694 16.5624C124.694 16.7494 124.625 16.9287 124.502 17.061C124.378 17.1932 124.212 17.2675 124.038 17.2675Z" fill="#27AAE1"/>
<path d="M106.779 30.559C110.195 30.559 112.965 27.5827 112.965 23.9111C112.965 20.2396 110.195 17.2632 106.779 17.2632C103.363 17.2632 100.594 20.2396 100.594 23.9111C100.594 27.5827 103.363 30.559 106.779 30.559Z" fill="#3F3D56"/>
</g>
<defs>
<clipPath id="clip0_1117_12042">
<rect width="232" height="216" fill="white"/>
</clipPath>
</defs>
</svg>
