<svg width="232" height="216" viewBox="0 0 232 216" fill="none" xmlns="http://www.w3.org/2000/svg">
<g clip-path="url(#clip0_1117_12088)">
<path d="M116.73 0H13.2353C9.72626 0.00484486 6.36211 1.71625 3.88087 4.75876C1.39963 7.80126 0.00394237 11.9264 0 16.2291V165.242C0.00394311 169.545 1.39964 173.67 3.88088 176.712C6.36212 179.755 9.72626 181.466 13.2353 181.471H116.73C120.239 181.466 123.603 179.755 126.084 176.712C128.565 173.67 129.961 169.545 129.965 165.242V16.2291C129.961 11.9264 128.565 7.80126 126.084 4.75876C123.603 1.71625 120.239 0.00484486 116.73 0Z" fill="#F2F2F2"/>
<path d="M116.73 4.67201H13.2352C10.7364 4.67545 8.34068 5.89417 6.57372 8.0608C4.80677 10.2274 3.81286 13.165 3.81006 16.2291V165.242C3.81287 168.306 4.80677 171.244 6.57373 173.41C8.34068 175.577 10.7364 176.796 13.2352 176.799H116.73C119.229 176.796 121.624 175.577 123.391 173.41C125.158 171.243 126.152 168.306 126.155 165.242V16.2291C126.152 13.1651 125.158 10.2275 123.391 8.06085C121.624 5.89422 119.229 4.67548 116.73 4.67201Z" fill="white"/>
<path d="M101.154 48.0009H48.8173C48.2328 48.0009 47.6722 47.7162 47.2588 47.2094C46.8455 46.7025 46.6133 46.0151 46.6133 45.2984C46.6133 44.5816 46.8455 43.8942 47.2588 43.3873C47.6722 42.8805 48.2328 42.5958 48.8173 42.5958H101.154C101.443 42.5958 101.73 42.6657 101.997 42.8015C102.265 42.9373 102.508 43.1364 102.712 43.3873C102.917 43.6383 103.079 43.9362 103.19 44.2641C103.301 44.592 103.358 44.9434 103.358 45.2984C103.358 45.6533 103.301 46.0047 103.19 46.3326C103.079 46.6605 102.917 46.9584 102.712 47.2094C102.508 47.4603 102.265 47.6594 101.997 47.7952C101.73 47.931 101.443 48.0009 101.154 48.0009Z" fill="#F2F2F2"/>
<path d="M110.245 57.1221H48.8173C48.2332 57.1213 47.6732 56.8363 47.2604 56.3295C46.8476 55.8228 46.6157 55.1358 46.6157 54.4196C46.6157 53.7033 46.8476 53.0164 47.2604 52.5096C47.6732 52.0029 48.2332 51.7178 48.8173 51.717H110.245C110.83 51.7178 111.389 52.0029 111.802 52.5096C112.215 53.0164 112.447 53.7033 112.447 54.4196C112.447 55.1358 112.215 55.8228 111.802 56.3295C111.389 56.8363 110.83 57.1213 110.245 57.1221Z" fill="#F2F2F2"/>
<path d="M101.154 88.8775H48.8173C48.2328 88.8775 47.6722 88.5927 47.2588 88.0859C46.8455 87.5791 46.6133 86.8917 46.6133 86.1749C46.6133 85.4581 46.8455 84.7707 47.2588 84.2639C47.6722 83.757 48.2328 83.4723 48.8173 83.4723H101.154C101.443 83.4723 101.73 83.5422 101.997 83.678C102.265 83.8138 102.508 84.0129 102.712 84.2639C102.917 84.5148 103.079 84.8128 103.19 85.1407C103.301 85.4685 103.358 85.82 103.358 86.1749C103.358 86.5298 103.301 86.8812 103.19 87.2091C103.079 87.537 102.917 87.8349 102.712 88.0859C102.508 88.3369 102.265 88.5359 101.997 88.6717C101.73 88.8076 101.443 88.8775 101.154 88.8775Z" fill="#F2F2F2"/>
<path d="M110.245 97.9987H48.8173C48.2332 97.9979 47.6732 97.7128 47.2604 97.206C46.8476 96.6993 46.6157 96.0123 46.6157 95.2961C46.6157 94.5799 46.8476 93.8929 47.2604 93.3861C47.6732 92.8794 48.2332 92.5943 48.8173 92.5935H110.245C110.83 92.5943 111.389 92.8794 111.802 93.3861C112.215 93.8929 112.447 94.5799 112.447 95.2961C112.447 96.0123 112.215 96.6993 111.802 97.206C111.389 97.7128 110.83 97.9979 110.245 97.9987Z" fill="#F2F2F2"/>
<path d="M101.154 129.754H48.8173C48.2328 129.754 47.6722 129.469 47.2588 128.962C46.8455 128.456 46.6133 127.768 46.6133 127.051C46.6133 126.335 46.8455 125.647 47.2588 125.14C47.6722 124.634 48.2328 124.349 48.8173 124.349H101.154C101.443 124.348 101.73 124.418 101.998 124.554C102.266 124.689 102.509 124.888 102.714 125.139C102.919 125.39 103.081 125.688 103.192 126.016C103.303 126.345 103.36 126.696 103.36 127.051C103.36 127.407 103.303 127.758 103.192 128.086C103.081 128.414 102.919 128.713 102.714 128.964C102.509 129.215 102.266 129.414 101.998 129.549C101.73 129.685 101.443 129.754 101.154 129.754Z" fill="#F2F2F2"/>
<path d="M110.245 138.875H48.8173C48.2332 138.874 47.6732 138.589 47.2604 138.083C46.8476 137.576 46.6157 136.889 46.6157 136.173C46.6157 135.456 46.8476 134.769 47.2604 134.263C47.6732 133.756 48.2332 133.471 48.8173 133.47H110.245C110.83 133.471 111.389 133.756 111.802 134.263C112.215 134.769 112.447 135.456 112.447 136.173C112.447 136.889 112.215 137.576 111.802 138.083C111.389 138.589 110.83 138.874 110.245 138.875Z" fill="#F2F2F2"/>
<path d="M37.0938 61.2628H18.5725C18.2923 61.2624 18.0236 61.1257 17.8255 60.8828C17.6274 60.6399 17.5159 60.3105 17.5156 59.9669V39.751C17.5159 39.4074 17.6274 39.078 17.8255 38.8351C18.0236 38.5922 18.2923 38.4555 18.5725 38.4551H37.0938C37.374 38.4555 37.6427 38.5922 37.8408 38.8351C38.0389 39.078 38.1504 39.4074 38.1507 39.751V59.9669C38.1504 60.3105 38.0389 60.6399 37.8408 60.8828C37.6427 61.1257 37.374 61.2624 37.0938 61.2628Z" fill="#E6E6E6"/>
<path d="M37.0938 102.139H18.5725C18.2923 102.139 18.0236 102.002 17.8255 101.759C17.6274 101.516 17.5159 101.187 17.5156 100.843V80.6276C17.5159 80.284 17.6274 79.9546 17.8255 79.7117C18.0236 79.4687 18.2923 79.3321 18.5725 79.3317H37.0938C37.374 79.3321 37.6427 79.4687 37.8408 79.7117C38.0389 79.9546 38.1504 80.284 38.1507 80.6276V100.843C38.1504 101.187 38.0389 101.516 37.8408 101.759C37.6427 102.002 37.374 102.139 37.0938 102.139Z" fill="#E6E6E6"/>
<path d="M37.0938 143.016H18.5725C18.2923 143.015 18.0236 142.879 17.8255 142.636C17.6274 142.393 17.5159 142.064 17.5156 141.72V121.504C17.5159 121.161 17.6274 120.831 17.8255 120.588C18.0236 120.345 18.2923 120.209 18.5725 120.208H37.0938C37.374 120.209 37.6427 120.345 37.8408 120.588C38.0389 120.831 38.1504 121.161 38.1507 121.504V141.72C38.1504 142.064 38.0389 142.393 37.8408 142.636C37.6427 142.879 37.374 143.015 37.0938 143.016Z" fill="#E6E6E6"/>
<path d="M207.902 140.931L208.723 132.126L212.839 87.9807L213.66 79.1761C214.055 74.9007 213.051 70.6079 210.867 67.2394C208.684 63.871 205.5 61.702 202.014 61.2084L108.601 48.1105C105.114 47.6265 101.613 48.8582 98.8663 51.5353C96.1192 54.2125 94.3503 58.1164 93.9478 62.3908L93.9456 62.4135L88.191 124.123L88.1889 124.146C87.7942 128.421 88.7986 132.714 90.9819 136.082C93.1652 139.451 96.349 141.62 99.8348 142.113L193.248 155.211C196.735 155.695 200.236 154.464 202.983 151.786C205.73 149.109 207.499 145.205 207.902 140.931Z" fill="#E6E6E6"/>
<path d="M204.116 140.4L205.089 129.972L208.903 89.0736L209.875 78.6454C210.156 75.6007 209.441 72.5437 207.886 70.1449C206.331 67.7462 204.064 66.2016 201.582 65.8501L108.168 52.7522C105.685 52.4075 103.192 53.2846 101.236 55.1911C99.2797 57.0976 98.02 59.8777 97.7334 62.9216L97.7312 62.9443L91.9766 124.654L91.9745 124.677C91.6934 127.721 92.4087 130.778 93.9635 133.177C95.5182 135.576 97.7855 137.12 100.268 137.472L193.681 150.57C196.164 150.914 198.657 150.037 200.614 148.131C202.57 146.224 203.829 143.444 204.116 140.4Z" fill="white"/>
<path d="M188.826 84.4473L136.828 77.1565C136.54 77.1165 136.262 77.0074 136.008 76.8353C135.755 76.6633 135.532 76.4317 135.352 76.1538C135.171 75.8758 135.037 75.5571 134.958 75.2157C134.878 74.8743 134.854 74.5169 134.887 74.1641C134.919 73.8113 135.009 73.4698 135.149 73.1593C135.29 72.8488 135.479 72.5754 135.706 72.3545C135.933 72.1337 136.193 71.9699 136.471 71.8724C136.75 71.7749 137.041 71.7457 137.329 71.7864L189.327 79.0772C189.907 79.1593 190.437 79.5205 190.8 80.0815C191.163 80.6424 191.33 81.3573 191.264 82.069C191.197 82.7806 190.903 83.4309 190.446 83.8768C189.989 84.3228 189.406 84.528 188.826 84.4473Z" fill="#E6E6E6"/>
<path d="M197.013 94.776L135.983 86.2187C135.695 86.1787 135.417 86.0695 135.163 85.8974C134.91 85.7254 134.687 85.4938 134.507 85.2159C134.326 84.938 134.192 84.6192 134.113 84.2778C134.033 83.9364 134.009 83.5791 134.042 83.2263C134.075 82.8735 134.164 82.5321 134.304 82.2216C134.445 81.9111 134.634 81.6376 134.861 81.4168C135.088 81.196 135.348 81.0321 135.626 80.9346C135.905 80.8371 136.196 80.8079 136.484 80.8485L197.514 89.4058C197.802 89.4462 198.08 89.5555 198.333 89.7277C198.586 89.8999 198.809 90.1315 198.989 90.4094C199.169 90.6872 199.303 91.0058 199.383 91.347C199.462 91.6882 199.487 92.0453 199.454 92.398C199.421 92.7506 199.332 93.0918 199.191 93.4021C199.051 93.7125 198.862 93.9858 198.635 94.2067C198.409 94.4275 198.149 94.5914 197.871 94.6891C197.592 94.7868 197.301 94.8163 197.013 94.776Z" fill="#E6E6E6"/>
<path d="M195.312 112.85L105.334 100.234C104.754 100.152 104.224 99.7908 103.861 99.2298C103.497 98.6688 103.331 97.9539 103.397 97.2423C103.463 96.5306 103.758 95.8804 104.215 95.4344C104.672 94.9885 105.255 94.7833 105.835 94.8639L195.813 107.48C196.101 107.52 196.379 107.629 196.632 107.801C196.886 107.973 197.109 108.205 197.289 108.483C197.47 108.761 197.603 109.08 197.683 109.421C197.763 109.762 197.787 110.12 197.754 110.472C197.721 110.825 197.632 111.167 197.491 111.477C197.351 111.788 197.162 112.061 196.935 112.282C196.708 112.503 196.448 112.667 196.17 112.764C195.891 112.862 195.6 112.891 195.312 112.85Z" fill="#E6E6E6"/>
<path d="M194.756 121.953L104.489 109.296C103.909 109.214 103.379 108.853 103.015 108.292C102.652 107.731 102.486 107.016 102.552 106.304C102.618 105.593 102.912 104.943 103.369 104.497C103.827 104.051 104.409 103.845 104.99 103.926L195.257 116.583C195.837 116.665 196.367 117.026 196.73 117.587C197.093 118.148 197.26 118.863 197.194 119.575C197.127 120.286 196.833 120.936 196.376 121.382C195.919 121.828 195.336 122.034 194.756 121.953Z" fill="#E6E6E6"/>
<path d="M193.656 130.608L103.678 117.991C103.39 117.951 103.112 117.842 102.859 117.67C102.605 117.498 102.382 117.267 102.202 116.989C102.021 116.711 101.887 116.392 101.808 116.051C101.728 115.709 101.704 115.352 101.737 114.999C101.77 114.646 101.859 114.305 101.999 113.994C102.14 113.684 102.329 113.41 102.556 113.189C102.783 112.969 103.043 112.805 103.321 112.707C103.6 112.61 103.891 112.581 104.179 112.621L194.157 125.237C194.737 125.319 195.267 125.681 195.63 126.242C195.994 126.803 196.16 127.518 196.094 128.229C196.028 128.941 195.734 129.591 195.276 130.037C194.819 130.483 194.236 130.688 193.656 130.608Z" fill="#E6E6E6"/>
<path d="M193.1 139.71L102.833 127.054C102.253 126.972 101.723 126.61 101.36 126.049C100.996 125.488 100.83 124.773 100.896 124.062C100.962 123.35 101.257 122.7 101.714 122.254C102.171 121.808 102.754 121.603 103.334 121.683L193.601 134.34C193.889 134.38 194.167 134.489 194.421 134.661C194.674 134.833 194.897 135.065 195.077 135.343C195.258 135.621 195.392 135.94 195.471 136.281C195.551 136.622 195.575 136.98 195.542 137.333C195.51 137.685 195.42 138.027 195.28 138.337C195.139 138.648 194.95 138.921 194.723 139.142C194.496 139.363 194.236 139.527 193.958 139.624C193.679 139.722 193.388 139.751 193.1 139.71Z" fill="#E6E6E6"/>
<path d="M123.952 88.6994L105.55 86.1192C105.272 86.0798 105.018 85.9066 104.843 85.6377C104.669 85.3687 104.589 85.0259 104.62 84.6845L106.493 64.5995C106.525 64.2582 106.667 63.9465 106.886 63.7327C107.105 63.5189 107.385 63.4206 107.663 63.4592L126.065 66.0394C126.343 66.0788 126.597 66.252 126.772 66.5209C126.946 66.7899 127.026 67.1327 126.995 67.4741L125.122 87.5591C125.09 87.9004 124.948 88.2121 124.729 88.4259C124.51 88.6397 124.23 88.738 123.952 88.6994Z" fill="#27AAE1"/>
<path d="M231.725 215.947H171.496C171.423 215.947 171.353 215.911 171.302 215.848C171.25 215.785 171.221 215.699 171.221 215.609C171.221 215.52 171.25 215.434 171.302 215.371C171.353 215.308 171.423 215.272 171.496 215.272H231.725C231.798 215.272 231.868 215.308 231.919 215.371C231.971 215.434 232 215.52 232 215.609C232 215.699 231.971 215.785 231.919 215.848C231.868 215.911 231.798 215.947 231.725 215.947Z" fill="#3F3D56"/>
<path d="M209.109 87.1128C209.017 87.5609 209.005 88.0285 209.076 88.4826C209.147 88.9367 209.298 89.3662 209.519 89.741C209.739 90.1157 210.024 90.4265 210.354 90.6516C210.683 90.8766 211.049 91.0104 211.425 91.0434L213.288 97.8988L216.962 97.5265L214.22 87.8906C214.223 87.1123 213.993 86.3595 213.574 85.7749C213.155 85.1902 212.576 84.8144 211.946 84.7185C211.316 84.6226 210.68 84.8134 210.157 85.2547C209.634 85.696 209.261 86.3571 209.109 87.1128Z" fill="#FFB8B8"/>
<path d="M211.923 132.006C212.353 132.491 212.881 132.828 213.451 132.983C214.022 133.138 214.616 133.106 215.173 132.89C215.731 132.674 216.232 132.281 216.626 131.751C217.02 131.222 217.293 130.574 217.417 129.874L220.327 113.527C220.825 110.732 220.707 107.825 219.988 105.104L216.582 92.2297C216.533 92.0449 216.453 91.8753 216.345 91.7323C216.238 91.5894 216.107 91.4766 215.961 91.4016C215.815 91.3266 215.657 91.2911 215.499 91.2977C215.34 91.3043 215.185 91.3527 215.043 91.4397L212.821 92.804C212.591 92.9453 212.408 93.1811 212.305 93.4703C212.202 93.7595 212.185 94.0838 212.257 94.3868L212.481 95.3318C214.344 103.189 214.442 111.518 212.764 119.438L210.954 127.98C210.803 128.696 210.813 129.449 210.983 130.158C211.154 130.867 211.479 131.506 211.923 132.006Z" fill="#27AAE1"/>
<path d="M200.28 212.42L197.136 212.42L195.641 197.549L200.281 197.55L200.28 212.42Z" fill="#FFB8B8"/>
<path d="M194.89 211.318H200.954V215.999H191.073C191.073 215.385 191.171 214.776 191.363 214.208C191.555 213.64 191.836 213.124 192.191 212.689C192.545 212.255 192.966 211.91 193.429 211.674C193.892 211.439 194.389 211.318 194.89 211.318Z" fill="#2F2E41"/>
<path d="M217.227 212.42L214.083 212.42L212.588 197.549L217.228 197.55L217.227 212.42Z" fill="#FFB8B8"/>
<path d="M211.837 211.318H217.901V215.999H208.02C208.02 215.385 208.118 214.776 208.31 214.208C208.502 213.64 208.783 213.124 209.138 212.689C209.492 212.255 209.913 211.91 210.376 211.674C210.84 211.439 211.336 211.318 211.837 211.318Z" fill="#2F2E41"/>
<path d="M208.019 106.708C211.75 106.708 214.774 102.999 214.774 98.4249C214.774 93.8505 211.75 90.1422 208.019 90.1422C204.289 90.1422 201.265 93.8505 201.265 98.4249C201.265 102.999 204.289 106.708 208.019 106.708Z" fill="#FFB8B8"/>
<path d="M184.923 152.441C184.97 151.983 185.098 151.542 185.299 151.151C185.5 150.76 185.769 150.428 186.086 150.178C186.403 149.928 186.761 149.766 187.135 149.704C187.508 149.641 187.888 149.68 188.248 149.818L192.023 144.269L195.333 146.26L189.912 154.004C189.684 154.73 189.246 155.328 188.682 155.685C188.118 156.042 187.466 156.133 186.851 155.94C186.236 155.747 185.7 155.285 185.345 154.64C184.989 153.995 184.839 153.213 184.923 152.441Z" fill="#FFB8B8"/>
<path d="M209.664 106.707C210.681 106.734 211.69 106.497 212.627 106.011C213.563 105.526 214.406 104.802 215.098 103.889C215.79 102.976 216.317 101.893 216.644 100.713C216.971 99.5321 217.09 98.28 216.994 97.0387C216.899 95.7974 216.589 94.595 216.088 93.5106C215.586 92.4262 214.902 91.4843 214.082 90.7468C213.263 90.0093 212.325 89.4929 211.33 89.2315C210.336 88.9701 209.308 88.9697 208.314 89.2303C206.828 88.1243 205.101 87.3801 203.37 87.5694C201.639 87.7587 199.927 89.0188 199.28 90.9963C198.633 92.9739 199.328 95.5807 200.938 96.3843C201.97 96.8996 203.135 96.6497 204.236 96.4419C205.337 96.2342 206.538 96.0986 207.497 96.7953C208.455 97.4919 208.886 99.36 208.028 100.231C207.573 100.711 207.248 101.35 207.096 102.062C206.945 102.774 206.974 103.526 207.179 104.217C207.611 105.585 208.788 106.684 209.664 106.707Z" fill="#2F2E41"/>
<path d="M218.045 152.114L219.243 207.871C219.247 208.057 219.219 208.242 219.162 208.414C219.105 208.586 219.02 208.742 218.911 208.872C218.803 209.002 218.674 209.103 218.532 209.168C218.39 209.234 218.238 209.263 218.087 209.254L214.14 209.007C213.888 208.991 213.648 208.87 213.461 208.663C213.273 208.456 213.149 208.177 213.11 207.871L208.415 171.657C208.395 171.502 208.331 171.36 208.235 171.257C208.139 171.153 208.016 171.093 207.889 171.089C207.761 171.084 207.635 171.134 207.534 171.23C207.433 171.326 207.363 171.462 207.335 171.616L200.98 206.484C200.946 206.67 200.88 206.846 200.786 206.998C200.693 207.151 200.574 207.278 200.438 207.37C200.302 207.463 200.151 207.518 199.996 207.534C199.84 207.55 199.684 207.524 199.538 207.46L195.62 207.167C195.394 207.068 195.2 206.881 195.068 206.634C194.936 206.387 194.874 206.094 194.891 205.8L198.311 151.586L218.045 152.114Z" fill="#2F2E41"/>
<path d="M219.968 125.631C220.628 117.182 215.562 109.539 208.657 108.938C205.682 108.679 201.063 108.586 199.541 113.368C194.954 127.772 202.983 127.422 200.217 139.902C197.45 152.382 195.007 153.097 198.803 153.998C202.599 154.9 219.668 160.219 218.967 151.435C218.536 146.036 219.308 134.059 219.968 125.631Z" fill="#27AAE1"/>
<path d="M200.903 111.903C201.448 111.644 202.039 111.566 202.617 111.677C203.194 111.788 203.738 112.084 204.192 112.535C204.647 112.986 204.996 113.575 205.206 114.245C205.415 114.914 205.476 115.639 205.384 116.347L203.228 132.868C202.859 135.693 201.885 138.348 200.405 140.559L193.403 151.021C193.303 151.172 193.177 151.293 193.035 151.378C192.892 151.463 192.736 151.51 192.578 151.514C192.42 151.519 192.262 151.481 192.117 151.404C191.971 151.327 191.841 151.213 191.735 151.068L190.072 148.804C189.9 148.569 189.8 148.268 189.79 147.953C189.781 147.637 189.861 147.328 190.018 147.078L190.508 146.298C194.581 139.816 197.151 132.106 197.946 123.981L198.803 115.218C198.875 114.484 199.108 113.787 199.478 113.203C199.848 112.619 200.341 112.17 200.903 111.903Z" fill="#27AAE1"/>
</g>
<defs>
<clipPath id="clip0_1117_12088">
<rect width="232" height="216" fill="white"/>
</clipPath>
</defs>
</svg>
